<?xml version="1.0" encoding="utf-8"?>
<!-- Generator: Adobe Illustrator 19.1.0, SVG Export Plug-In . SVG Version: 6.00 Build 0)  -->
<svg version="1.1" id="Layer_1" xmlns="http://www.w3.org/2000/svg" xmlns:xlink="http://www.w3.org/1999/xlink" x="0px" y="0px"
	 viewBox="0 0 66 76.1" enable-background="new 0 0 66 76.1" xml:space="preserve">
<g>
	<g>
		<g>
			<g>
				<path fill="#79B843" d="M64.9,1.1c-0.7-0.7-1.7-1.1-2.7-1.1L13.2,0c-1.5,0-2.9,0.9-3.5,2.3c-0.6,1.4-0.3,3.1,0.8,4.1l9.6,9.6
					l26.1,0c1,0,2,0.4,2.7,1.1c0.7,0.7,1.2,1.7,1.1,2.7l0,26.2l9.3,9.3c1.1,1.1,2.7,1.4,4.1,0.8c0.5-0.2,0.9-0.5,1.2-0.8
					c0.7-0.7,1.1-1.7,1.1-2.7l0-48.9C66,2.8,65.6,1.9,64.9,1.1L64.9,1.1z"/>
				<path fill="#79B843" d="M45.8,60l-26.1,0c-1,0-2-0.4-2.7-1.1c-0.7-0.7-1.2-1.7-1.1-2.7l0-26.2l-9.3-9.3
					c-1.1-1.1-2.7-1.4-4.1-0.8c-0.5,0.2-0.9,0.4-1.2,0.8c-0.7,0.7-1.1,1.7-1.1,2.7l0,48.9c0,1,0.4,2,1.1,2.7
					c0.7,0.7,1.7,1.1,2.7,1.1l48.9,0.1c1.5,0,2.9-0.9,3.5-2.3c0.6-1.4,0.3-3.1-0.8-4.1L45.8,60L45.8,60z"/>
			</g>
		</g>
	</g>
</g>
</svg>
