<?xml version="1.0" encoding="utf-8"?>
<!-- Generator: Adobe Illustrator 21.0.2, SVG Export Plug-In . SVG Version: 6.00 Build 0)  -->
<svg version="1.1" id="Layer_7" xmlns="http://www.w3.org/2000/svg" xmlns:xlink="http://www.w3.org/1999/xlink" x="0px" y="0px"
	 viewBox="0 0 109.5 109.5" style="enable-background:new 0 0 109.5 109.5;" xml:space="preserve">
<style type="text/css">
	.st0{fill:#231F20;}
</style>
<g>
	<g>
		<rect x="7.8" y="25.8" class="st0" width="3" height="58"/>
	</g>
	<g>
		<rect x="98.8" y="25.8" class="st0" width="3" height="58"/>
	</g>
	<g>
		<polygon class="st0" points="14.6,85.2 14.6,24.4 24.3,30 22.8,32.6 17.6,29.6 17.6,79.8 22.8,76.6 24.4,79.1 		"/>
	</g>
	<g>
		<polygon class="st0" points="94.1,85.2 84.3,79.1 85.9,76.6 91.1,79.8 91.1,29.6 85.9,32.6 84.4,30 94.1,24.4 		"/>
	</g>
	<g>
		<path class="st0" d="M79.2,87.2H29.7v-65h49.5V87.2z M32.7,84.2h43.5v-59H32.7V84.2z"/>
	</g>
	<g>
		<path class="st0" d="M54.4,71.9c-9.4,0-17.1-7.7-17.1-17.1S45,37.6,54.4,37.6c9.4,0,17.1,7.7,17.1,17.1S63.9,71.9,54.4,71.9z
			 M54.4,40.6c-7.8,0-14.1,6.3-14.1,14.1s6.3,14.1,14.1,14.1c7.8,0,14.1-6.3,14.1-14.1S62.2,40.6,54.4,40.6z"/>
	</g>
	<g>
		<path class="st0" d="M54.4,64.6c-5.4,0-9.8-4.4-9.8-9.8c0-5.4,4.4-9.8,9.8-9.8s9.8,4.4,9.8,9.8C64.3,60.2,59.8,64.6,54.4,64.6z
			 M54.4,46.9c-4.3,0-7.8,3.5-7.8,7.8s3.5,7.8,7.8,7.8c4.3,0,7.8-3.5,7.8-7.8S58.7,46.9,54.4,46.9z"/>
	</g>
</g>
</svg>
