<?xml version="1.0" encoding="utf-8"?>
<!-- Generator: Adobe Illustrator 21.0.2, SVG Export Plug-In . SVG Version: 6.00 Build 0)  -->
<svg version="1.1" xmlns="http://www.w3.org/2000/svg" xmlns:xlink="http://www.w3.org/1999/xlink" x="0px" y="0px"
	 viewBox="0 0 144 144" style="enable-background:new 0 0 144 144;" xml:space="preserve">
<style type="text/css">
	.st0{display:none;}
	.st1{display:inline;}
	.st2{fill:#fff;}
	.st3{fill:none;}
	.st4{fill:transparent;}
</style>
<g id="Reset" class="st0">
	<g class="st1">
		<path class="st2" d="M74.4,43.9L74.4,43.9l0,2.9h0c14.2,0,25.7,11.5,25.7,25.7S88.6,98.3,74.4,98.3c-14.2,0-25.7-11.5-25.7-25.7
			c0-2.3,0.3-4.6,0.9-6.8l7.7,9.7l2.4-1.9l-6.2-7.9l-4.4-5.6l-4.5,2.7l-10.2,6.2l1.6,2.6l10.7-6.5c-0.6,2.4-1,4.8-1,7.4
			c0,15.8,12.9,28.7,28.7,28.7c15.8,0,28.7-12.9,28.7-28.7S90.3,43.9,74.4,43.9z"/>
	</g>
</g>
<g id="Grid" class="st0">
	<g class="st1">
		<g>
			<path class="st2" d="M66.8,67.1H38.2V38.5h28.6V67.1z M41.2,64.1h22.6V41.5H41.2V64.1z"/>
		</g>
		<g>
			<path class="st2" d="M106,67.1H77.4V38.5H106V67.1z M80.4,64.1H103V41.5H80.4V64.1z"/>
		</g>
		<g>
			<path class="st2" d="M66.8,106.2H38.2V77.7h28.6V106.2z M41.2,103.2h22.6V80.7H41.2V103.2z"/>
		</g>
		<g>
			<path class="st2" d="M106,106.2H77.4V77.7H106V106.2z M80.4,103.2H103V80.7H80.4V103.2z"/>
		</g>
	</g>
</g>
<g id="List" class="st0">
	<g class="st1">
		<rect x="60.8" y="41.2" class="st2" width="44" height="3.3"/>
		<rect x="40.1" y="41.2" class="st2" width="15.9" height="3.3"/>
		<rect x="40.1" y="61" class="st2" width="15.9" height="3.3"/>
		<rect x="60.8" y="61" class="st2" width="44" height="3.3"/>
		<rect x="60.8" y="80.8" class="st2" width="44" height="3.3"/>
		<rect x="40.1" y="80.8" class="st2" width="15.9" height="3.3"/>
		<rect x="40.1" y="100.6" class="st2" width="15.9" height="3.3"/>
		<rect x="60.8" y="100.6" class="st2" width="44" height="3.3"/>
	</g>
</g>
<g id="Featured" class="st0">
	<g class="st1">
		<polygon class="st3" points="95.9,66.4 78.2,66 72,49.9 66.2,66 48.2,66.4 62.4,77.4 57,94.8 72,84.3 86.9,94.8 81.8,77.4 		"/>
		<path class="st2" d="M106.5,62.9l-25.7-0.6l-0.1-0.2L72,39.2l-8.5,23.1l-26,0.6L58,78.8l-7.7,25.3L72,88.9l21.4,15.2l-7.3-25.3
			L106.5,62.9z M87.8,96L72,84.9L56.1,96l5.6-18.4l-15-11.6l19-0.4l6.2-17l6.5,17l18.8,0.4L82.4,77.6L87.8,96z"/>
	</g>
</g>
<g id="List_1_" class="st0">
	<g class="st1">
		<path class="st2" d="M38,56.4c6,0,11-4.5,11.7-10.4h66.7v-3H49.7C49,37.2,44,32.7,38,32.7c-6.5,0-11.9,5.3-11.9,11.9
			S31.4,56.4,38,56.4z M29.1,44.5c0-4.9,4-8.9,8.9-8.9s8.9,4,8.9,8.9s-4,8.9-8.9,8.9S29.1,49.4,29.1,44.5z"/>
		<path class="st2" d="M106.1,59.7c-6,0-11,4.5-11.7,10.4H27.6v3h66.8c0.7,5.8,5.7,10.3,11.7,10.3c6.5,0,11.9-5.3,11.9-11.9
			C118,65,112.7,59.7,106.1,59.7z M97.3,71.5c0-4.9,4-8.9,8.8-8.9s8.9,4,8.9,8.9c0,4.9-4,8.9-8.9,8.9S97.3,76.4,97.3,71.5z"/>
		<path class="st2" d="M65.3,87.7c-6,0-11,4.5-11.7,10.4h-26v3h26c0.7,5.8,5.7,10.4,11.7,10.4c6,0,11-4.5,11.7-10.4h39.3v-3H77.1
			C76.4,92.2,71.4,87.7,65.3,87.7z M74.2,99.5c0,4.9-4,8.9-8.9,8.9c-4.9,0-8.9-4-8.9-8.9s4-8.9,8.9-8.9
			C70.2,90.7,74.2,94.6,74.2,99.5z"/>
	</g>
</g>
<g id="Carousel" class="st0">
	<g class="st1">
		<rect x="44.8" y="37.2" class="st3" width="53.6" height="53.6"/>
		<circle class="st3" cx="71.6" cy="104.8" r="3.2"/>
		<circle class="st3" cx="89.6" cy="104.8" r="3.2"/>
		<path class="st2" d="M41.8,93.8h59.6V34.2H41.8V93.8z M44.8,37.2h53.6v53.6H44.8V37.2z"/>
		<circle class="st2" cx="53.6" cy="104.8" r="6.2"/>
		<path class="st2" d="M71.6,98.6c-3.4,0-6.2,2.8-6.2,6.2s2.8,6.2,6.2,6.2s6.2-2.8,6.2-6.2S75,98.6,71.6,98.6z M71.6,108
			c-1.8,0-3.2-1.4-3.2-3.2s1.4-3.2,3.2-3.2s3.2,1.4,3.2,3.2S73.4,108,71.6,108z"/>
		<path class="st2" d="M89.6,98.6c-3.4,0-6.2,2.8-6.2,6.2s2.8,6.2,6.2,6.2s6.2-2.8,6.2-6.2S93,98.6,89.6,98.6z M89.6,108
			c-1.8,0-3.2-1.4-3.2-3.2s1.4-3.2,3.2-3.2s3.2,1.4,3.2,3.2S91.4,108,89.6,108z"/>
		<polygon class="st2" points="33.7,52.4 23.6,64 33.7,75.6 35.9,73.6 27.6,64 35.9,54.4 		"/>
		<polygon class="st2" points="109.5,52.4 107.2,54.4 115.6,64 107.2,73.6 109.5,75.6 119.6,64 		"/>
	</g>
</g>
<g id="Hotspot" class="st0">
	<g class="st1">
		<path class="st2" d="M71.6,43c-15.8,0-28.7,12.9-28.7,28.7c0,15.8,12.9,28.7,28.7,28.7c15.8,0,28.7-12.9,28.7-28.7
			C100.3,55.8,87.4,43,71.6,43z M71.6,97.4c-14.2,0-25.7-11.5-25.7-25.7c0-14.2,11.5-25.7,25.7-25.7c14.2,0,25.7,11.5,25.7,25.7
			C97.3,85.8,85.8,97.4,71.6,97.4z"/>
		<path class="st2" d="M71.6,85c7.3,0,13.3-6,13.3-13.3s-6-13.3-13.3-13.3c-7.3,0-13.3,6-13.3,13.3S64.3,85,71.6,85z M71.6,60.8
			c6,0,10.8,4.9,10.8,10.8s-4.9,10.8-10.8,10.8c-6,0-10.8-4.9-10.8-10.8S65.6,60.8,71.6,60.8z"/>
		<path class="st2" d="M71.6,53.5c-10,0-18.1,8.1-18.1,18.1c0,10,8.1,18.1,18.1,18.1c10,0,18.1-8.1,18.1-18.1
			C89.8,61.6,81.6,53.5,71.6,53.5z M71.6,55.5c8.9,0,16.1,7.2,16.1,16.1s-7.2,16.1-16.1,16.1c-8.9,0-16.1-7.2-16.1-16.1
			S62.7,55.5,71.6,55.5z"/>
	</g>
</g>
<g id="Dynamic_Content">
	<g>
		<path class="st2" d="M119.5,51.7h-42V55h42v0v5v3.3v31.6v3.3v5.1v0h0l0,0l-44,0H33.5v0v-5.1v-3.3v-1.5h-3.3v9.8
			c0,1.8,1.5,3.3,3.3,3.3h85.9c1.8,0,3.3-1.5,3.3-3.3V55C122.8,53.2,121.3,51.7,119.5,51.7z"/>
		<rect x="77.5" y="67.4" class="st2" width="36.4" height="3.1"/>
		<rect x="77.5" y="77.6" class="st2" width="36.4" height="3.1"/>
		<rect x="77.5" y="87.8" class="st2" width="36.4" height="3.1"/>
		<path class="st4" d="M47.2,66.8c0.4,0.3,0.9,0.3,1.3,0h0c0.3-0.2,0.4-0.5,0.4-0.9c0-0.3-0.2-0.7-0.4-0.9c-0.2-0.1-0.4-0.2-0.6-0.2
			s-0.5,0.1-0.6,0.2c-0.3,0.2-0.4,0.5-0.4,0.9C46.8,66.2,46.9,66.5,47.2,66.8z"/>
		<path class="st4" d="M37.4,67.1c0.2,2,1,3.8,2.2,5.4l1.2-1.2l1.7,1.7l-1.2,1.2c1.6,1.2,3.4,2,5.4,2.2v-1.7h2.4v1.7
			c2-0.2,3.8-1,5.3-2.2L53.3,73l1.7-1.7l1.2,1.2c1.2-1.5,2-3.4,2.2-5.3h-1.6v-2.4h1.6c-0.2-1.9-1-3.8-2.2-5.3L55,60.5l-1.7-1.7
			l1.2-1.2c-1.9-1.5-4.2-2.3-6.6-2.3c-2.4,0-4.7,0.8-6.5,2.3l1.2,1.2l-1.7,1.7l-1.2-1.2c-1.3,1.6-2,3.4-2.3,5.4h1.8v2.4H37.4z
			 M46.7,62.6v-5.8h2.4v5.8c1.4,0.5,2.3,1.8,2.3,3.3s-0.9,2.8-2.3,3.3v2.3h-2.4v-2.3c-1.4-0.5-2.3-1.8-2.3-3.3S45.3,63.1,46.7,62.6z
			"/>
		<polygon class="st4" points="48.7,63 48.7,63 48.7,63 		"/>
		<rect x="21.2" y="83.3" class="st2" width="5.3" height="5.3"/>
		<rect x="32.7" y="83.3" class="st2" width="5.3" height="5.3"/>
		<rect x="44.2" y="83.3" class="st2" width="5.3" height="5.3"/>
		<rect x="55.7" y="83.3" class="st2" width="5.3" height="5.3"/>
		<rect x="67.2" y="48.8" class="st2" width="5.3" height="5.3"/>
		<rect x="67.2" y="60.3" class="st2" width="5.3" height="5.3"/>
		<rect x="67.2" y="71.8" class="st2" width="5.3" height="5.3"/>
		<rect x="21.2" y="48.8" class="st2" width="5.3" height="5.3"/>
		<rect x="21.2" y="60.3" class="st2" width="5.3" height="5.3"/>
		<rect x="21.2" y="71.8" class="st2" width="5.3" height="5.3"/>
		<rect x="67.2" y="83.3" class="st2" width="5.3" height="5.3"/>
		<rect x="21.2" y="37.3" class="st2" width="5.3" height="5.3"/>
		<rect x="32.7" y="37.3" class="st2" width="5.3" height="5.3"/>
		<rect x="44.2" y="37.3" class="st2" width="5.3" height="5.3"/>
		<rect x="55.7" y="37.3" class="st2" width="5.3" height="5.3"/>
		<rect x="67.2" y="37.3" class="st2" width="5.3" height="5.3"/>
		<path class="st2" d="M47.8,78.9c7.2,0,13-5.8,13-13c0-3.3-1.2-6.5-3.5-8.9c-2.2-2.3-5.1-3.8-8.2-4v-2.8h-2.4V53
			c-3.2,0.3-6.1,1.7-8.3,4c-2.3,2.4-3.5,5.6-3.5,8.9C34.9,73.1,40.7,78.9,47.8,78.9z M37.4,64.7c0.2-2,1-3.8,2.3-5.4l1.2,1.2
			l1.7-1.7l-1.2-1.2c1.9-1.5,4.2-2.3,6.5-2.3c2.4,0,4.7,0.8,6.6,2.3l-1.2,1.2l1.7,1.7l1.2-1.2c1.2,1.5,2,3.4,2.2,5.3h-1.6v2.4h1.6
			c-0.2,2-1,3.8-2.2,5.3L55,71.2L53.3,73l1.2,1.2c-1.5,1.2-3.4,2-5.3,2.2v-1.7h-2.4v1.7c-2-0.2-3.8-1-5.4-2.2l1.2-1.2l-1.7-1.7
			l-1.2,1.2c-1.3-1.6-2-3.4-2.2-5.4h1.8v-2.4H37.4z"/>
		<path class="st2" d="M42.8,52h2.4v-2.3c0-0.4,0.3-0.8,0.8-0.8h3.8c0.4,0,0.8,0.3,0.8,0.8V52h2.4v-2.3c0-1.8-1.4-3.2-3.2-3.2H46
			c-1.8,0-3.2,1.4-3.2,3.2V52z"/>
		<path class="st2" d="M58.6,56.6l0.3,0.4l1.9-1.6l-0.3-0.4c-1-1.1-2.1-2.1-3.4-3l-0.4-0.3l-1.3,2.1l0.4,0.3
			C56.8,54.8,57.7,55.7,58.6,56.6z"/>
		<path class="st2" d="M46.7,69.2v2.3h2.4v-2.3c1.4-0.5,2.3-1.8,2.3-3.3s-0.9-2.8-2.3-3.3v-5.8h-2.4v5.8c-1.4,0.5-2.3,1.8-2.3,3.3
			S45.3,68.7,46.7,69.2z M46.8,65.9c0-0.3,0.2-0.7,0.4-0.9c0.2-0.1,0.4-0.2,0.6-0.2s0.5,0.1,0.6,0.2c0.3,0.2,0.4,0.5,0.4,0.9
			c0,0.3-0.2,0.7-0.4,0.9h0c-0.4,0.3-0.9,0.3-1.3,0C46.9,66.5,46.8,66.2,46.8,65.9z M48.7,63L48.7,63L48.7,63L48.7,63z"/>
	</g>
</g>
<g id="Integrated_Content" class="st0">
	<g class="st1">
		<path class="st2" d="M119.5,51.7h-42V55h42v0v5v3.3v31.6v3.3v5.1v0h0l0,0l-44,0H33.5v0v-5.1v-3.3v-1.5h-3.3v9.8
			c0,1.8,1.5,3.3,3.3,3.3h85.9c1.8,0,3.3-1.5,3.3-3.3V55C122.8,53.2,121.3,51.7,119.5,51.7z"/>
		<rect x="77.5" y="67.4" class="st2" width="36.4" height="3.1"/>
		<rect x="77.5" y="77.6" class="st2" width="36.4" height="3.1"/>
		<rect x="77.5" y="87.8" class="st2" width="36.4" height="3.1"/>
		<rect x="31.9" y="48" class="st2" width="29.9" height="29.9"/>
		<rect x="21.2" y="83.3" class="st2" width="5.3" height="5.3"/>
		<rect x="32.7" y="83.3" class="st2" width="5.3" height="5.3"/>
		<rect x="44.2" y="83.3" class="st2" width="5.3" height="5.3"/>
		<rect x="55.7" y="83.3" class="st2" width="5.3" height="5.3"/>
		<rect x="67.2" y="48.8" class="st2" width="5.3" height="5.3"/>
		<rect x="67.2" y="60.3" class="st2" width="5.3" height="5.3"/>
		<rect x="67.2" y="71.8" class="st2" width="5.3" height="5.3"/>
		<rect x="21.2" y="48.8" class="st2" width="5.3" height="5.3"/>
		<rect x="21.2" y="60.3" class="st2" width="5.3" height="5.3"/>
		<rect x="21.2" y="71.8" class="st2" width="5.3" height="5.3"/>
		<rect x="67.2" y="83.3" class="st2" width="5.3" height="5.3"/>
		<rect x="21.2" y="37.3" class="st2" width="5.3" height="5.3"/>
		<rect x="32.7" y="37.3" class="st2" width="5.3" height="5.3"/>
		<rect x="44.2" y="37.3" class="st2" width="5.3" height="5.3"/>
		<rect x="55.7" y="37.3" class="st2" width="5.3" height="5.3"/>
		<rect x="67.2" y="37.3" class="st2" width="5.3" height="5.3"/>
	</g>
</g>
</svg>
