<?xml version="1.0" encoding="utf-8"?>
<!-- Generator: Adobe Illustrator 21.0.2, SVG Export Plug-In . SVG Version: 6.00 Build 0)  -->
<svg version="1.1" id="Layer_8" xmlns="http://www.w3.org/2000/svg" xmlns:xlink="http://www.w3.org/1999/xlink" x="0px" y="0px"
	 viewBox="0 0 109.5 109.5" style="enable-background:new 0 0 109.5 109.5;" xml:space="preserve">
<style type="text/css">
	.st0{fill:#231F20;}
</style>
<g>
	<path class="st0" d="M59.1,26.1l-0.1,0c-0.6,0-1.2,0-1.7,0l-0.6,0v3h3v0c0,0,0,0,0,0h0v0c13.6,0.8,24.2,12,24.2,25.7
		c0,14.2-11.5,25.7-25.7,25.7c-13.3,0-24.2-10.1-25.6-23l7,0.1l-8.4-15.1l-8.4,15.1l6.8-0.1C30.9,72,43.2,83.4,58.1,83.4
		c15.8,0,28.7-12.9,28.7-28.7C86.8,39.2,74.6,26.6,59.1,26.1z"/>
	<polygon class="st0" points="59.3,55.4 59.3,37.5 56.3,37.5 56.3,54.1 46.6,64.3 48.8,66.3 	"/>
	<circle class="st0" cx="70.7" cy="43" r="1.7"/>
	<ellipse transform="matrix(0.866 -0.5 0.5 0.866 -24.0136 44.3176)" class="st0" cx="70.7" cy="67" rx="1.7" ry="1.7"/>
	<ellipse transform="matrix(0.866 -0.5 0.5 0.866 -17.3058 44.912)" class="st0" cx="75.2" cy="54.8" rx="1.7" ry="1.7"/>
	<ellipse transform="matrix(0.866 -0.5 0.5 0.866 -28.5714 38.6291)" class="st0" cx="57.8" cy="72.6" rx="1.7" ry="1.7"/>
</g>
</svg>
