<?xml version="1.0" encoding="utf-8"?>
<!-- Generator: Adobe Illustrator 21.0.2, SVG Export Plug-In . SVG Version: 6.00 Build 0)  -->
<svg version="1.1" id="Layer_6" xmlns="http://www.w3.org/2000/svg" xmlns:xlink="http://www.w3.org/1999/xlink" x="0px" y="0px"
	 viewBox="0 0 109.5 109.5" style="enable-background:new 0 0 109.5 109.5;" xml:space="preserve">
<style type="text/css">
	.st0{fill:#231F20;}
</style>
<path class="st0" d="M78.5,67.4H72c-1.1-4.4-5.1-7.7-9.8-7.7h-4.9V46.6c4.7-1.1,8.3-5.4,8.3-10.5c0-5.9-4.8-10.8-10.8-10.8
	c-5.9,0-10.8,4.8-10.8,10.8c0,5.1,3.5,9.3,8.3,10.5v13.1h-4.9c-4.7,0-8.7,3.3-9.8,7.7H31c-4.5,0-8.1,3.6-8.1,8.1v0.6
	c0,4.5,3.6,8.1,8.1,8.1h47.5c4.5,0,8.1-3.6,8.1-8.1v-0.6C86.6,71,82.9,67.4,78.5,67.4z M47,36.2c0-4.3,3.5-7.8,7.8-7.8
	s7.8,3.5,7.8,7.8c0,4.3-3.5,7.8-7.8,7.8S47,40.4,47,36.2z M47.3,62.7h14.9c3.1,0,5.7,2,6.7,4.7H40.6C41.6,64.7,44.2,62.7,47.3,62.7z
	 M83.6,76.1c0,2.8-2.3,5.1-5.1,5.1H31c-2.8,0-5.1-2.3-5.1-5.1v-0.6c0-2.8,2.3-5.1,5.1-5.1h47.5c2.8,0,5.1,2.3,5.1,5.1V76.1z"/>
</svg>
