<svg id="Layer_7" data-name="Layer 7" xmlns="http://www.w3.org/2000/svg" viewBox="0 0 65.18 65.18"><defs><style>.cls-1{fill:#231f20;}</style></defs><title>Hotspot</title><path class="cls-1" d="M72,37.22a32.59,32.59,0,1,0,32.59,32.59A32.63,32.63,0,0,0,72,37.22ZM72,99a29.24,29.24,0,1,1,29.24-29.24A29.28,29.28,0,0,1,72,99Z" transform="translate(-39.41 -37.22)"/><path class="cls-1" d="M72,84.93A15.13,15.13,0,1,0,56.87,69.81,15.15,15.15,0,0,0,72,84.93Zm0-27.42A12.29,12.29,0,1,1,59.71,69.81,12.3,12.3,0,0,1,72,57.52Z" transform="translate(-39.41 -37.22)"/><path class="cls-1" d="M72,49.18A20.62,20.62,0,1,0,92.62,69.81,20.64,20.64,0,0,0,72,49.18Zm0,2.27A18.35,18.35,0,1,1,53.65,69.81,18.37,18.37,0,0,1,72,51.46Z" transform="translate(-39.41 -37.22)"/></svg>