<?xml version="1.0" encoding="utf-8"?>
<!-- Generator: Adobe Illustrator 21.0.2, SVG Export Plug-In . SVG Version: 6.00 Build 0)  -->
<svg version="1.1" id="Layer_1" xmlns="http://www.w3.org/2000/svg" xmlns:xlink="http://www.w3.org/1999/xlink" x="0px" y="0px"
	 viewBox="0 0 109.5 109.5" style="enable-background:new 0 0 109.5 109.5;" xml:space="preserve">
<style type="text/css">
	.st0{fill:#231F20;}
</style>
<g>
	<path class="st0" d="M79.4,29l-3,3.7v0L61.6,50.5l0,0l-6.8,8.3l-10.5-9.2c0,0-0.1,0-0.1-0.1l-0.3,0.3L42,52.1l-0.1,0.1l13.3,11.7
		l22.1-26.7v40.1h-45v-45h40.6V29H29.1v51.4h51.4V29.8l0-0.8H79.4z"/>
	<rect x="15.2" y="40.3" class="st0" width="12.9" height="3"/>
	<rect x="81.5" y="40.3" class="st0" width="12.9" height="3"/>
	<rect x="15.2" y="53.3" class="st0" width="12.9" height="3"/>
	<rect x="81.5" y="53.3" class="st0" width="12.9" height="3"/>
	<rect x="81.5" y="66.3" class="st0" width="12.9" height="3"/>
	<rect x="15.2" y="66.3" class="st0" width="12.9" height="3"/>
</g>
<g>
	<path class="st0" d="M383,459.4h-45.8c-1.7,0-3.1,1.4-3.1,3.1v63.8c0,1.7,1.4,3.1,3.1,3.1H383c1.7,0,3.1-1.4,3.1-3.1v-63.8
		C386.1,460.8,384.7,459.4,383,459.4z M383,521.5v4.7l0,0l-45.8,0v-4.7H383z M383,470.2v48.3h-45.8v-48.3H383z M337.2,467.1l0-4.7
		l45.8,0v4.7H337.2z"/>
	<rect x="347.3" y="479.6" class="st0" width="25.6" height="2.9"/>
	<rect x="347.3" y="488.5" class="st0" width="25.6" height="2.9"/>
	<rect x="347.3" y="497.3" class="st0" width="25.6" height="2.9"/>
	<rect x="347.3" y="506.2" class="st0" width="25.6" height="2.9"/>
</g>
</svg>
