<?xml version="1.0" encoding="utf-8"?>
<!-- Generator: Adobe Illustrator 21.0.2, SVG Export Plug-In . SVG Version: 6.00 Build 0)  -->
<svg version="1.1" id="Layer_1" xmlns="http://www.w3.org/2000/svg" xmlns:xlink="http://www.w3.org/1999/xlink" x="0px" y="0px"
	 viewBox="0 0 109.5 109.5" style="enable-background:new 0 0 109.5 109.5;" xml:space="preserve">
<style type="text/css">
	.st0{fill:#231F20;}
</style>
<g>
	<path class="st0" d="M54.8,26.1c-15.8,0-28.7,12.9-28.7,28.7c0,15.8,12.9,28.7,28.7,28.7c15.8,0,28.7-12.9,28.7-28.7
		C83.4,38.9,70.6,26.1,54.8,26.1z M54.8,80.5C40.6,80.5,29,68.9,29,54.8C29,40.6,40.6,29,54.8,29c14.2,0,25.7,11.5,25.7,25.7
		C80.5,68.9,68.9,80.5,54.8,80.5z"/>
	<path class="st0" d="M54.8,68.1c7.3,0,13.3-6,13.3-13.3s-6-13.3-13.3-13.3c-7.3,0-13.3,6-13.3,13.3S47.4,68.1,54.8,68.1z
		 M54.8,43.9c6,0,10.8,4.9,10.8,10.8s-4.9,10.8-10.8,10.8c-6,0-10.8-4.9-10.8-10.8S48.8,43.9,54.8,43.9z"/>
	<path class="st0" d="M54.8,36.6c-10,0-18.1,8.1-18.1,18.1c0,10,8.1,18.1,18.1,18.1c10,0,18.1-8.1,18.1-18.1
		C72.9,44.8,64.8,36.6,54.8,36.6z M54.8,38.6c8.9,0,16.1,7.2,16.1,16.1s-7.2,16.1-16.1,16.1c-8.9,0-16.1-7.2-16.1-16.1
		S45.9,38.6,54.8,38.6z"/>
</g>
</svg>
